<svg id="Layer_2" data-name="Layer 2" xmlns="http://www.w3.org/2000/svg" viewBox="0 0 169.94 169.94"><defs><style>.cls-2{fill:#ff7f19}</style></defs><g id="Layer_1" data-name="Layer 1"><path d="M24.38 0h121.17c13.47 0 24.38 10.92 24.38 24.38v121.17c0 13.47-10.92 24.38-24.38 24.38H24.38C10.91 169.93 0 159.01 0 145.55V24.38C0 10.92 10.92 0 24.38 0" fill="#112b65"/><path class="cls-2" d="M72.67 72.54l57.34 8.53 9.03 48.13 8.39-69.53L87.1 32.2 72.67 72.54z"/><path class="cls-2" d="M72.67 72.54L68.3 84.79l-51.83 52.95 70.35-32.65 12.16-23.17-26.31-9.38zm441.82 1.9l30.71-.09c15.13 0 14.61-21.11-.37-21.11h-30.38l.04 21.2zm30.71 21.04h-30.71l-.37 42.25h-20.47V32.13h51.19c42.09 0 42.61 63.35.37 63.35M375.39 53.24V32.13h-78.82v105.6h78.82v-21.12h-58.5V95.48h40.66V74.35h-40.66V53.24h58.5zm44.06 42.24l15.18-36.65 15.18 36.65h-30.36zm47.85 42.25h22.31L445.87 32.12h-22.51l-43.74 105.61h22.31l8.75-21.12h47.86l8.75 21.12zM213.71 32.13v105.6h75.3l.02-21.12h-54.85V32.13h-20.47z"/></g></svg>