<?xml version="1.0" encoding="UTF-8"?> <svg xmlns="http://www.w3.org/2000/svg" width="320" height="40" viewBox="0 0 320 40" fill="none"><g clip-path="url(#clip0_7560_1084)"><path d="M22.9898 37.8205H16.3434V24.4098C16.3434 21.5803 16.196 19.7382 15.916 18.9129C15.636 18.0876 15.1644 17.4245 14.516 16.9676C13.8676 16.496 13.0865 16.275 12.1875 16.275C11.0233 16.275 9.97697 16.6139 9.04854 17.2624C8.12011 17.9255 7.48641 18.795 7.14746 19.8856C6.80851 20.9761 6.63167 22.9803 6.63167 25.913V37.8205H0V11.456H6.14534V15.3171C8.3559 12.3992 11.1265 10.9402 14.4865 10.9402C15.9602 10.9402 17.316 11.2202 18.5392 11.7655C19.7624 12.3255 20.6761 13.0181 21.3098 13.8876C21.9434 14.7423 22.3708 15.715 22.6213 16.8055C22.8719 17.8961 22.9898 19.4435 22.9898 21.4772V37.8058V37.8205Z" fill="#286EEA"></path><path d="M42.7522 29.4645L49.3986 30.6435C48.5438 33.2078 47.188 35.153 45.3311 36.4941C43.489 37.8352 41.1753 38.4984 38.4047 38.4984C34.0131 38.4984 30.7562 37.0099 28.6636 34.0036C26.9983 31.6014 26.173 28.5803 26.173 24.9255C26.173 20.5634 27.2635 17.1297 29.4446 14.6686C31.6257 12.1927 34.3815 10.9548 37.7268 10.9548C41.47 10.9548 44.4469 12.2517 46.6133 14.8454C48.7796 17.4391 49.8112 21.4034 49.7228 26.7529H32.9668C33.011 28.8014 33.5563 30.4077 34.5878 31.5425C35.6342 32.6772 36.931 33.252 38.4784 33.252C39.5248 33.252 40.4237 32.9572 41.1311 32.353C41.8532 31.7635 42.3985 30.7909 42.7669 29.4498M43.0764 22.5381C43.0322 20.4897 42.5311 18.9423 41.5732 17.8812C40.6153 16.8202 39.4658 16.2896 38.0953 16.2896C36.6363 16.2896 35.4279 16.8644 34.47 17.9697C33.512 19.0897 33.0552 20.6076 33.0699 22.5381H43.0764Z" fill="#286EEA"></path><path d="M65.4324 11.4559V17.0412H60.8934V27.7256C60.8934 29.8919 60.9376 31.1593 61.0261 31.513C61.1145 31.8667 61.3061 32.1614 61.6303 32.3972C61.9398 32.633 62.3082 32.7509 62.765 32.7509C63.3987 32.7509 64.2977 32.5298 65.4767 32.0877L65.9188 37.4667C64.3861 38.1594 62.6471 38.4983 60.7166 38.4983C59.5376 38.4983 58.4618 38.292 57.5039 37.8646C56.546 37.452 55.8534 36.892 55.3965 36.2288C54.9544 35.5509 54.6449 34.652 54.4681 33.5025C54.3207 32.6919 54.2618 31.0561 54.2618 28.5803V17.0559H51.1817V11.4706H54.2618V6.23896L60.8934 2.18628V11.4706H65.4324V11.4559Z" fill="#286EEA"></path><path d="M93.2412 37.8206H87.0959V33.9595C86.0643 35.4626 84.8411 36.5974 83.4411 37.349C82.0411 38.1153 80.6263 38.4837 79.1968 38.4837C76.2936 38.4837 73.8178 37.2606 71.7399 34.8289C69.6767 32.3826 68.6304 28.9783 68.6304 24.6162C68.6304 20.254 69.6325 16.7613 71.6515 14.4182C73.6557 12.0897 76.2052 10.9255 79.2705 10.9255C82.1 10.9255 84.5316 12.1487 86.5948 14.595V1.49377H93.2412V37.8206ZM75.4241 24.1593C75.4241 26.9888 75.8073 29.0226 76.5589 30.2899C77.6494 32.1026 79.1526 33.0163 81.1126 33.0163C82.66 33.0163 83.9864 32.3384 85.0622 30.9678C86.138 29.5973 86.6832 27.5636 86.6832 24.8372C86.6832 21.8014 86.1527 19.6203 85.1064 18.2793C84.0453 16.9529 82.7042 16.275 81.0537 16.275C79.4031 16.275 78.121 16.9382 77.0452 18.2498C75.9694 19.5761 75.4241 21.5361 75.4241 24.1446" fill="#286EEA"></path><path d="M95.8939 24.3508C95.8939 22.0371 96.4392 19.7971 97.5297 17.6307C98.6202 15.4644 100.168 13.8138 102.187 12.6643C104.191 11.5296 106.431 10.9548 108.907 10.9548C112.724 10.9548 115.863 12.2517 118.294 14.8454C120.726 17.4391 121.964 20.7108 121.964 24.6603C121.964 28.6098 120.726 31.9551 118.265 34.5783C115.804 37.2015 112.694 38.5131 108.951 38.5131C106.637 38.5131 104.427 37.9678 102.319 36.8773C100.227 35.7867 98.6202 34.1804 97.5297 32.073C96.4392 29.9656 95.8939 27.3866 95.8939 24.3655M102.688 24.7192C102.688 27.3424 103.292 29.3467 104.486 30.7467C105.665 32.1467 107.138 32.8246 108.892 32.8246C110.646 32.8246 112.105 32.132 113.298 30.7467C114.477 29.3467 115.082 27.3277 115.082 24.675C115.082 22.0223 114.492 20.1065 113.298 18.7065C112.105 17.3065 110.646 16.6139 108.892 16.6139C107.138 16.6139 105.665 17.3065 104.486 18.7065C103.292 20.1065 102.688 22.1108 102.688 24.7192Z" fill="#286EEA"></path><path d="M147.857 19.237L141.299 20.5044C141.063 19.1634 140.562 18.1465 139.781 17.4686C138.985 16.7907 137.968 16.4517 136.701 16.4517C135.021 16.4517 133.68 17.056 132.678 18.2497C131.675 19.4581 131.189 21.4623 131.189 24.2771C131.189 27.4014 131.69 29.6119 132.707 30.9088C133.724 32.2056 135.08 32.8393 136.789 32.8393C138.057 32.8393 139.103 32.4562 139.913 31.6898C140.724 30.9383 141.299 29.6267 141.638 27.7551L148.196 28.9488C147.503 32.1025 146.206 34.4751 144.276 36.0815C142.345 37.6878 139.766 38.4984 136.509 38.4984C132.825 38.4984 129.877 37.2899 127.682 34.8436C125.486 32.412 124.395 29.0519 124.395 24.7487C124.395 20.4455 125.501 17.0118 127.696 14.5949C129.892 12.178 132.869 10.9548 136.627 10.9548C139.692 10.9548 142.139 11.6327 143.966 13.0033C145.779 14.3591 147.076 16.437 147.886 19.237" fill="#286EEA"></path><path d="M167.899 37.8205V33.8857C166.971 35.2857 165.747 36.4057 164.259 37.2457C162.756 38.0857 161.164 38.4984 159.499 38.4984C157.834 38.4984 156.257 38.1152 154.916 37.3341C153.56 36.5531 152.573 35.4625 151.968 34.0478C151.364 32.633 151.069 30.6877 151.069 28.1972V11.4559H157.701V23.614C157.701 27.3277 157.819 29.6119 158.069 30.4372C158.32 31.2772 158.777 31.9404 159.425 32.4267C160.088 32.913 160.914 33.1636 161.931 33.1636C163.08 33.1636 164.112 32.8393 165.025 32.1762C165.939 31.513 166.558 30.7172 166.897 29.7298C167.236 28.7572 167.398 26.3845 167.398 22.5971V11.4412H174.044V37.8057H167.884L167.899 37.8205Z" fill="#286EEA"></path><path d="M178.76 11.4559H184.92V15.0517C187.116 12.3254 189.725 10.9548 192.746 10.9548C194.352 10.9548 195.752 11.3085 196.931 12.0012C198.11 12.6938 199.083 13.7401 199.849 15.1402C200.939 13.7401 202.133 12.6938 203.415 12.0012C204.697 11.3085 206.068 10.9548 207.512 10.9548C209.354 10.9548 210.916 11.3527 212.199 12.1338C213.466 12.9149 214.424 14.0643 215.058 15.5823C215.514 16.7023 215.735 18.5149 215.735 21.0202V37.8204H209.104V22.8034C209.104 20.195 208.868 18.5149 208.411 17.7486C207.792 16.7612 206.849 16.2602 205.567 16.2602C204.624 16.2602 203.74 16.5549 202.929 17.1591C202.118 17.7486 201.499 18.6181 201.146 19.7676C200.777 20.9171 200.615 22.7297 200.615 25.2055V37.8204H193.969V23.4224C193.969 20.8729 193.851 19.2223 193.615 18.4707C193.379 17.7339 193.011 17.1739 192.495 16.8202C191.994 16.4517 191.316 16.2749 190.476 16.2749C189.43 16.2749 188.516 16.5696 187.691 17.1444C186.866 17.7191 186.276 18.5591 185.922 19.6349C185.569 20.7255 185.392 22.5381 185.392 25.0582V37.8204H178.745V11.4559H178.76Z" fill="#286EEA"></path><path d="M235.336 29.4645L241.967 30.6435C241.113 33.2078 239.757 35.153 237.915 36.4941C236.073 37.8352 233.759 38.4984 230.988 38.4984C226.597 38.4984 223.34 37.0099 221.247 34.0036C219.567 31.6014 218.742 28.5803 218.742 24.9255C218.742 20.5634 219.832 17.1297 222.028 14.6686C224.209 12.1927 226.98 10.9548 230.31 10.9548C234.068 10.9548 237.016 12.2517 239.197 14.8454C241.363 17.4391 242.395 21.4034 242.306 26.7529H225.55C225.595 28.8014 226.14 30.4077 227.186 31.5425C228.218 32.6772 229.515 33.252 231.077 33.252C232.123 33.252 233.007 32.9572 233.729 32.353C234.452 31.7635 234.982 30.7909 235.35 29.4498M235.675 22.5381C235.616 20.4897 235.129 18.9423 234.171 17.8812C233.214 16.8202 232.064 16.2896 230.694 16.2896C229.235 16.2896 228.026 16.8644 227.083 17.9697C226.125 19.0897 225.653 20.6076 225.683 22.5381H235.689H235.675Z" fill="#286EEA"></path><path d="M268.288 37.8205H261.656V24.4098C261.656 21.5803 261.509 19.7382 261.214 18.9129C260.919 18.0876 260.462 17.4245 259.814 16.9676C259.18 16.496 258.399 16.275 257.485 16.275C256.321 16.275 255.275 16.6139 254.346 17.2624C253.433 17.9255 252.784 18.795 252.445 19.8856C252.106 20.9761 251.93 22.9803 251.93 25.913V37.8205H245.298V11.456H251.458V15.3171C253.669 12.3992 256.439 10.9402 259.784 10.9402C261.273 10.9402 262.614 11.2202 263.837 11.7655C265.046 12.3255 265.989 13.0181 266.608 13.8876C267.241 14.7423 267.683 15.715 267.919 16.8055C268.17 17.8961 268.288 19.4435 268.288 21.4772V37.8058V37.8205Z" fill="#286EEA"></path><path d="M285.132 11.4559V17.0412H280.593V27.7256C280.593 29.8919 280.637 31.1593 280.726 31.513C280.814 31.8667 281.021 32.1614 281.33 32.3972C281.639 32.633 282.008 32.7509 282.465 32.7509C283.098 32.7509 283.983 32.5298 285.176 32.0877L285.618 37.4667C284.086 38.1594 282.347 38.4983 280.402 38.4983C279.223 38.4983 278.147 38.292 277.189 37.8646C276.246 37.452 275.538 36.892 275.096 36.2288C274.654 35.5509 274.345 34.652 274.168 33.5025C274.02 32.6919 273.961 31.0561 273.961 28.5803V17.0559H270.881V11.4706H273.961V6.23896L280.593 2.18628V11.4706H285.132V11.4559Z" fill="#286EEA"></path><path d="M287.21 30.909L293.93 29.8332C294.21 31.1595 294.785 32.1616 295.64 32.8543C296.509 33.5469 297.718 33.9006 299.28 33.9006C300.989 33.9006 302.286 33.5764 303.156 32.9132C303.745 32.4416 304.025 31.8227 304.025 31.0269C304.025 30.4963 303.863 30.0542 303.553 29.7005C303.214 29.3616 302.478 29.0521 301.313 28.7574C295.934 27.49 292.53 26.3405 291.086 25.3236C289.096 23.8941 288.094 21.9194 288.094 19.3846C288.094 17.1004 288.964 15.1845 290.703 13.6372C292.427 12.0898 295.109 11.3087 298.734 11.3234C302.198 11.3234 304.747 11.9277 306.442 13.0919C308.107 14.2561 309.271 15.9951 309.89 18.2793L303.568 19.4436C303.303 18.412 302.787 17.6162 302.036 17.0562C301.299 16.5109 300.223 16.2309 298.823 16.2161C297.054 16.2161 295.802 16.4667 295.035 16.9825C294.534 17.3509 294.269 17.8225 294.269 18.412C294.269 18.913 294.49 19.3404 294.932 19.6941C295.537 20.1657 297.614 20.8288 301.196 21.6836C304.762 22.5531 307.252 23.5847 308.667 24.8226C310.067 26.0752 310.76 27.7995 310.745 30.0247C310.745 32.4416 309.772 34.5343 307.842 36.2732C305.911 38.0122 303.038 38.867 299.265 38.8522C295.831 38.8522 293.105 38.1301 291.101 36.7006C289.096 35.2711 287.8 33.3258 287.195 30.8795" fill="#286EEA"></path><path d="M316.124 18.5446H316.109C315.107 18.5446 314.149 18.1614 313.427 17.454C312.661 16.7172 312.248 15.7298 312.248 14.6687C312.248 12.5466 313.987 10.8076 316.124 10.8076C317.17 10.8076 318.143 11.2203 318.865 11.9571C319.587 12.694 319.985 13.6666 319.985 14.6982C319.985 16.8351 318.246 18.5593 316.124 18.5593M316.139 11.2939C314.282 11.2939 312.764 12.8119 312.764 14.6687C312.764 15.5972 313.118 16.4666 313.796 17.1151C314.429 17.7193 315.255 18.0582 316.124 18.0582C317.966 18.0582 319.469 16.5403 319.484 14.6835C319.484 13.7845 319.145 12.9298 318.512 12.2813C317.878 11.6476 317.038 11.2939 316.139 11.2792" fill="#286EEA"></path><path d="M315.21 16.4813H314.695V12.6497H316.478C317.112 12.6497 317.745 12.8707 317.745 13.6813C317.745 14.256 317.45 14.4623 317.2 14.5949C317.421 14.6834 317.642 14.7865 317.657 15.3171L317.686 16.0097C317.686 16.2308 317.716 16.3044 317.878 16.3929V16.4813H317.244C317.17 16.2455 317.156 15.656 317.156 15.5234C317.156 15.1992 317.097 14.8455 316.463 14.8307H315.21V16.4666V16.4813ZM315.225 14.3886H316.419C316.802 14.3886 317.2 14.3002 317.2 13.7255C317.2 13.136 316.773 13.077 316.522 13.077H315.225V14.3739V14.3886Z" fill="#286EEA"></path></g><defs><clipPath id="clip0_7560_1084"><rect width="320" height="37.3879" fill="#286EEA" transform="translate(0 1.49377)"></rect></clipPath></defs></svg> 